CddbId:980f2c61:[150, 685, 3097, 6733, 10453, 13748, 16674, 20017, 23800, 27339, 30487, 33148, 34458, 36973, 39578, 41528, 43319, 46662, 49741, 53538, 56854, 60699, 64593, 68271, 72033, 75571, 78803, 83053, 85985, 89496, 93321, 96511, 99841, 102989, 106117, 109510, 112442, 115869, 119373, 123121, 126541, 130164, 133124, 136071, 137791, 140815, 144604, 148178, 152079, 154935, 156105, 158404, 162151, 164903, 168066, 171709, 174293, 176501, 179483, 183642, 186644, 189242, 192321, 195296, 198389, 201112, 204505, 207389, 210475, 214236, 217183, 220060, 223578, 226754, 229638, 232424, 236472, 238269, 241571, 244476, 246691, 249804, 252542, 255677, 258937, 262545, 265485, 268961, 270403, 273078, 275948, 277968, 279570, 282078, 285345, 288403, 290507]:291450:74:980f2c61 97 150 685 3097 6733 10453 13748 16674 20017 23800 27339 30487 33148 34458 36973 39578 41528 43319 46662 49741 53538 56854 60699 64593 68271 72033 75571 78803 83053 85985 89496 93321 96511 99841 102989 106117 109510 112442 115869 119373 123121 126541 130164 133124 136071 137791 140815 144604 148178 152079 154935 156105 158404 162151 164903 168066 171709 174293 176501 179483 183642 186644 189242 192321 195296 198389 201112 204505 207389 210475 214236 217183 220060 223578 226754 229638 232424 236472 238269 241571 244476 246691 249804 252542 255677 258937 262545 265485 268961 270403 273078 275948 277968 279570 282078 285345 288403 290507 3886: 97 0 0 0 0 0 0 0 0 0 0 0 0 0 0 0 0 0 0 0 0 0 0 0 0 0 0 0 0 0 0 0 0 0 0 0 0 0 0 0 0 0 0 0 0 0 0 0 0 0 0 0 0 0 0 0 0 0 0 0 0 0 0 0 0 0 0 0 0 0 0 0 0 0 0 0 0 0 0 0 0 0 0 0 0 0 0 0 0 0 0 0 0 0 0 0 0 0 3886
num_tracks: 97
offsets: [150, 685, 3097, 6733, 10453, 13748, 16674, 20017, 23800, 27339, 30487, 33148, 34458, 36973, 39578, 41528, 43319, 46662, 49741, 53538, 56854, 60699, 64593, 68271, 72033, 75571, 78803, 83053, 85985, 89496, 93321, 96511, 99841, 102989, 106117, 109510, 112442, 115869, 119373, 123121, 126541, 130164, 133124, 136071, 137791, 140815, 144604, 148178, 152079, 154935, 156105, 158404, 162151, 164903, 168066, 171709, 174293, 176501, 179483, 183642, 186644, 189242, 192321, 195296, 198389, 201112, 204505, 207389, 210475, 214236, 217183, 220060, 223578, 226754, 229638, 232424, 236472, 238269, 241571, 244476, 246691, 249804, 252542, 255677, 258937, 262545, 265485, 268961, 270403, 273078, 275948, 277968, 279570, 282078, 285345, 288403, 290507]
extents: [0, 0, 0, 0, 0, 0, 0, 0, 0, 0, 0, 0, 0, 0, 0, 0, 0, 0, 0, 0, 0, 0, 0, 0, 0, 0, 0, 0, 0, 0, 0, 0, 0, 0, 0, 0, 0, 0, 0, 0, 0, 0, 0, 0, 0, 0, 0, 0, 0, 0, 0, 0, 0, 0, 0, 0, 0, 0, 0, 0, 0, 0, 0, 0, 0, 0, 0, 0, 0, 0, 0, 0, 0, 0, 0, 0, 0, 0, 0, 0, 0, 0, 0, 0, 0, 0, 0, 0, 0, 0, 0, 0, 0, 0, 0, 0, 0]
total_length: 3886
cddb: [2551131233, 97, 150, 685, 3097, 6733, 10453, 13748, 16674, 20017, 23800, 27339, 30487, 33148, 34458, 36973, 39578, 41528, 43319, 46662, 49741, 53538, 56854, 60699, 64593, 68271, 72033, 75571, 78803, 83053, 85985, 89496, 93321, 96511, 99841, 102989, 106117, 109510, 112442, 115869, 119373, 123121, 126541, 130164, 133124, 136071, 137791, 140815, 144604, 148178, 152079, 154935, 156105, 158404, 162151, 164903, 168066, 171709, 174293, 176501, 179483, 183642, 186644, 189242, 192321, 195296, 198389, 201112, 204505, 207389, 210475, 214236, 217183, 220060, 223578, 226754, 229638, 232424, 236472, 238269, 241571, 244476, 246691, 249804, 252542, 255677, 258937, 262545, 265485, 268961, 270403, 273078, 275948, 277968, 279570, 282078, 285345, 288403, 290507, 3886]
musicbrainz: ('97 150 685 3097 6733 10453 13748 16674 20017 23800 27339 30487 33148 34458 36973 39578 41528 43319 46662 49741 53538 56854 60699 64593 68271 72033 75571 78803 83053 85985 89496 93321 96511 99841 102989 106117 109510 112442 115869 119373 123121 126541 130164 133124 136071 137791 140815 144604 148178 152079 154935 156105 158404 162151 164903 168066 171709 174293 176501 179483 183642 186644 189242 192321 195296 198389 201112 204505 207389 210475 214236 217183 220060 223578 226754 229638 232424 236472 238269 241571 244476 246691 249804 252542 255677 258937 262545 265485 268961 270403 273078 275948 277968 279570 282078 285345 288403 290507 291458', 'EsNlYBsqhO9O3yh7PfJFeaHCPJo-')

CD record:
Device type    : Removable CD-ROM
Version        : 0
Response Format: 2
Capabilities   : 
Vendor_info    : 'FREECOM_'
Identification : 'DVD+/-RW16H4    '
Revision       : 'FR00'
Device seems to be: Generic mmc2 DVD-R/DVD-RW.
Using generic SCSI-3/mmc   CD-R/CD-RW driver (mmc_cdr).
Driver flags   : MMC-3 SWABAUDIO BURNFREE 
Supported modes: TAO PACKET SAO SAO/R96R RAW/R96R
first: 1 last 97
track:   1 lba:         0 (        0) 00:02:00 adr: 1 control: 0 mode: -1
track:   2 lba:       535 (     2140) 00:09:10 adr: 1 control: 0 mode: -1
track:   3 lba:      2947 (    11788) 00:41:22 adr: 1 control: 0 mode: -1
track:   4 lba:      6583 (    26332) 01:29:58 adr: 1 control: 0 mode: -1
track:   5 lba:     10303 (    41212) 02:19:28 adr: 1 control: 0 mode: -1
track:   6 lba:     13598 (    54392) 03:03:23 adr: 1 control: 0 mode: -1
track:   7 lba:     16524 (    66096) 03:42:24 adr: 1 control: 0 mode: -1
track:   8 lba:     19867 (    79468) 04:26:67 adr: 1 control: 0 mode: -1
track:   9 lba:     23650 (    94600) 05:17:25 adr: 1 control: 0 mode: -1
track:  10 lba:     27189 (   108756) 06:04:39 adr: 1 control: 0 mode: -1
track:  11 lba:     30337 (   121348) 06:46:37 adr: 1 control: 0 mode: -1
track:  12 lba:     32998 (   131992) 07:21:73 adr: 1 control: 0 mode: -1
track:  13 lba:     34308 (   137232) 07:39:33 adr: 1 control: 0 mode: -1
track:  14 lba:     36823 (   147292) 08:12:73 adr: 1 control: 0 mode: -1
track:  15 lba:     39428 (   157712) 08:47:53 adr: 1 control: 0 mode: -1
track:  16 lba:     41378 (   165512) 09:13:53 adr: 1 control: 0 mode: -1
track:  17 lba:     43169 (   172676) 09:37:44 adr: 1 control: 0 mode: -1
track:  18 lba:     46512 (   186048) 10:22:12 adr: 1 control: 0 mode: -1
track:  19 lba:     49591 (   198364) 11:03:16 adr: 1 control: 0 mode: -1
track:  20 lba:     53388 (   213552) 11:53:63 adr: 1 control: 0 mode: -1
track:  21 lba:     56704 (   226816) 12:38:04 adr: 1 control: 0 mode: -1
track:  22 lba:     60549 (   242196) 13:29:24 adr: 1 control: 0 mode: -1
track:  23 lba:     64443 (   257772) 14:21:18 adr: 1 control: 0 mode: -1
track:  24 lba:     68121 (   272484) 15:10:21 adr: 1 control: 0 mode: -1
track:  25 lba:     71883 (   287532) 16:00:33 adr: 1 control: 0 mode: -1
track:  26 lba:     75421 (   301684) 16:47:46 adr: 1 control: 0 mode: -1
track:  27 lba:     78653 (   314612) 17:30:53 adr: 1 control: 0 mode: -1
track:  28 lba:     82903 (   331612) 18:27:28 adr: 1 control: 0 mode: -1
track:  29 lba:     85835 (   343340) 19:06:35 adr: 1 control: 0 mode: -1
track:  30 lba:     89346 (   357384) 19:53:21 adr: 1 control: 0 mode: -1
track:  31 lba:     93171 (   372684) 20:44:21 adr: 1 control: 0 mode: -1
track:  32 lba:     96361 (   385444) 21:26:61 adr: 1 control: 0 mode: -1
track:  33 lba:     99691 (   398764) 22:11:16 adr: 1 control: 0 mode: -1
track:  34 lba:    102839 (   411356) 22:53:14 adr: 1 control: 0 mode: -1
track:  35 lba:    105967 (   423868) 23:34:67 adr: 1 control: 0 mode: -1
track:  36 lba:    109360 (   437440) 24:20:10 adr: 1 control: 0 mode: -1
track:  37 lba:    112292 (   449168) 24:59:17 adr: 1 control: 0 mode: -1
track:  38 lba:    115719 (   462876) 25:44:69 adr: 1 control: 0 mode: -1
track:  39 lba:    119223 (   476892) 26:31:48 adr: 1 control: 0 mode: -1
track:  40 lba:    122971 (   491884) 27:21:46 adr: 1 control: 0 mode: -1
track:  41 lba:    126391 (   505564) 28:07:16 adr: 1 control: 0 mode: -1
track:  42 lba:    130014 (   520056) 28:55:39 adr: 1 control: 0 mode: -1
track:  43 lba:    132974 (   531896) 29:34:74 adr: 1 control: 0 mode: -1
track:  44 lba:    135921 (   543684) 30:14:21 adr: 1 control: 0 mode: -1
track:  45 lba:    137641 (   550564) 30:37:16 adr: 1 control: 0 mode: -1
track:  46 lba:    140665 (   562660) 31:17:40 adr: 1 control: 0 mode: -1
track:  47 lba:    144454 (   577816) 32:08:04 adr: 1 control: 0 mode: -1
track:  48 lba:    148028 (   592112) 32:55:53 adr: 1 control: 0 mode: -1
track:  49 lba:    151929 (   607716) 33:47:54 adr: 1 control: 0 mode: -1
track:  50 lba:    154785 (   619140) 34:25:60 adr: 1 control: 0 mode: -1
track:  51 lba:    155955 (   623820) 34:41:30 adr: 1 control: 0 mode: -1
track:  52 lba:    158254 (   633016) 35:12:04 adr: 1 control: 0 mode: -1
track:  53 lba:    162001 (   648004) 36:02:01 adr: 1 control: 0 mode: -1
track:  54 lba:    164753 (   659012) 36:38:53 adr: 1 control: 0 mode: -1
track:  55 lba:    167916 (   671664) 37:20:66 adr: 1 control: 0 mode: -1
track:  56 lba:    171559 (   686236) 38:09:34 adr: 1 control: 0 mode: -1
track:  57 lba:    174143 (   696572) 38:43:68 adr: 1 control: 0 mode: -1
track:  58 lba:    176351 (   705404) 39:13:26 adr: 1 control: 0 mode: -1
track:  59 lba:    179333 (   717332) 39:53:08 adr: 1 control: 0 mode: -1
track:  60 lba:    183492 (   733968) 40:48:42 adr: 1 control: 0 mode: -1
track:  61 lba:    186494 (   745976) 41:28:44 adr: 1 control: 0 mode: -1
track:  62 lba:    189092 (   756368) 42:03:17 adr: 1 control: 0 mode: -1
track:  63 lba:    192171 (   768684) 42:44:21 adr: 1 control: 0 mode: -1
track:  64 lba:    195146 (   780584) 43:23:71 adr: 1 control: 0 mode: -1
track:  65 lba:    198239 (   792956) 44:05:14 adr: 1 control: 0 mode: -1
track:  66 lba:    200962 (   803848) 44:41:37 adr: 1 control: 0 mode: -1
track:  67 lba:    204355 (   817420) 45:26:55 adr: 1 control: 0 mode: -1
track:  68 lba:    207239 (   828956) 46:05:14 adr: 1 control: 0 mode: -1
track:  69 lba:    210325 (   841300) 46:46:25 adr: 1 control: 0 mode: -1
track:  70 lba:    214086 (   856344) 47:36:36 adr: 1 control: 0 mode: -1
track:  71 lba:    217033 (   868132) 48:15:58 adr: 1 control: 0 mode: -1
track:  72 lba:    219910 (   879640) 48:54:10 adr: 1 control: 0 mode: -1
track:  73 lba:    223428 (   893712) 49:41:03 adr: 1 control: 0 mode: -1
track:  74 lba:    226604 (   906416) 50:23:29 adr: 1 control: 0 mode: -1
track:  75 lba:    229488 (   917952) 51:01:63 adr: 1 control: 0 mode: -1
track:  76 lba:    232274 (   929096) 51:38:74 adr: 1 control: 0 mode: -1
track:  77 lba:    236322 (   945288) 52:32:72 adr: 1 control: 0 mode: -1
track:  78 lba:    238119 (   952476) 52:56:69 adr: 1 control: 0 mode: -1
track:  79 lba:    241421 (   965684) 53:40:71 adr: 1 control: 0 mode: -1
track:  80 lba:    244326 (   977304) 54:19:51 adr: 1 control: 0 mode: -1
track:  81 lba:    246541 (   986164) 54:49:16 adr: 1 control: 0 mode: -1
track:  82 lba:    249654 (   998616) 55:30:54 adr: 1 control: 0 mode: -1
track:  83 lba:    252392 (  1009568) 56:07:17 adr: 1 control: 0 mode: -1
track:  84 lba:    255527 (  1022108) 56:49:02 adr: 1 control: 0 mode: -1
track:  85 lba:    258787 (  1035148) 57:32:37 adr: 1 control: 0 mode: -1
track:  86 lba:    262395 (  1049580) 58:20:45 adr: 1 control: 0 mode: -1
track:  87 lba:    265335 (  1061340) 58:59:60 adr: 1 control: 0 mode: -1
track:  88 lba:    268811 (  1075244) 59:46:11 adr: 1 control: 0 mode: -1
track:  89 lba:    270253 (  1081012) 60:05:28 adr: 1 control: 0 mode: -1
track:  90 lba:    272928 (  1091712) 60:41:03 adr: 1 control: 0 mode: -1
track:  91 lba:    275798 (  1103192) 61:19:23 adr: 1 control: 0 mode: -1
track:  92 lba:    277818 (  1111272) 61:46:18 adr: 1 control: 0 mode: -1
track:  93 lba:    279420 (  1117680) 62:07:45 adr: 1 control: 0 mode: -1
track:  94 lba:    281928 (  1127712) 62:41:03 adr: 1 control: 0 mode: -1
track:  95 lba:    285195 (  1140780) 63:24:45 adr: 1 control: 0 mode: -1
track:  96 lba:    288253 (  1153012) 64:05:28 adr: 1 control: 0 mode: -1
track:  97 lba:    290357 (  1161428) 64:33:32 adr: 1 control: 0 mode: -1
track:lout lba:    291308 (  1165232) 64:46:08 adr: 1 control: 0 mode: -1
